<svg width="241" height="118" viewBox="0 0 241 118" fill="none" xmlns="http://www.w3.org/2000/svg">
<path d="M15 60C15 32.3858 37.3858 10 65 10H241V118H15V60Z" fill="#334155"/>
<g opacity="0.4" filter="url(#filter0_f_121701_74)">
<path d="M48 81C66.2254 81 81 66.2254 81 48C81 29.7746 66.2254 15 48 15C29.7746 15 15 29.7746 15 48C15 66.2254 29.7746 81 48 81Z" fill="#FF7474"/>
</g>
<path d="M48 76C66.2254 76 81 61.2254 81 43C81 24.7746 66.2254 10 48 10C29.7746 10 15 24.7746 15 43C15 61.2254 29.7746 76 48 76Z" fill="#FF7474"/>
<path d="M57.9146 32.3806C58.091 32.6578 57.7888 32.9808 57.4684 32.908C56.8417 32.7213 56.1484 32.628 55.4417 32.628H51.1003C50.8536 32.628 50.6212 32.5119 50.473 32.3147L48.9751 30.3213C48.7873 30.0552 48.9648 29.668 49.2905 29.668H52.9617C55.0431 29.668 56.8765 30.7489 57.9146 32.3806Z" fill="white"/>
<path d="M58.8546 35.7213C58.2813 35.308 57.628 35.0013 56.9213 34.828C56.4413 34.6946 55.948 34.628 55.4413 34.628H50.4813C49.708 34.628 49.6546 34.5613 49.2413 34.0146L47.3746 31.5346C46.508 30.3746 45.828 29.668 43.6546 29.668H40.5613C37.308 29.668 34.668 32.308 34.668 35.5613V50.4413C34.668 53.6946 37.308 56.3346 40.5613 56.3346H55.4413C58.6946 56.3346 61.3346 53.6946 61.3346 50.4413V40.5213C61.3346 38.5346 60.3613 36.788 58.8546 35.7213ZM51.188 48.788H44.8013C44.2813 48.788 43.8813 48.3746 43.8813 47.8546C43.8813 47.348 44.2813 46.9213 44.8013 46.9213H51.188C51.708 46.9213 52.1213 47.348 52.1213 47.8546C52.1213 48.3746 51.708 48.788 51.188 48.788Z" fill="white"/>
<mask id="mask0_121701_74" style="mask-type:alpha" maskUnits="userSpaceOnUse" x="15" y="31" width="226" height="87">
<path d="M241 31H15V118H241V31Z" fill="#D9D9D9"/>
</mask>
<g mask="url(#mask0_121701_74)">
<path d="M15.1325 132.852V114.06C14.3273 105.325 16.2976 88.0007 46.836 85.8435C74.8842 83.8623 80.8534 79.863 95.5529 53.7925C107.653 32.3326 126.126 31.9263 143.043 31.554C145.259 31.5052 147.449 31.4571 149.594 31.3623C160.963 30.8596 198.081 30.7996 223.5 31.0004C252 30.9999 241 28.6834 241 39.5995V225.523C241 236.537 232.146 245.466 221.225 245.466H34.775C23.8536 245.466 15 236.537 15 225.523V132.852H15.1325Z" fill="#1E293B"/>
</g>
<defs>
<filter id="filter0_f_121701_74" x="0.875" y="0.875" width="94.25" height="94.25" filterUnits="userSpaceOnUse" color-interpolation-filters="sRGB">
<feFlood flood-opacity="0" result="BackgroundImageFix"/>
<feBlend mode="normal" in="SourceGraphic" in2="BackgroundImageFix" result="shape"/>
<feGaussianBlur stdDeviation="7.0625" result="effect1_foregroundBlur_121701_74"/>
</filter>
</defs>
</svg>
